<svg xmlns="http://www.w3.org/2000/svg" xmlns:xlink="http://www.w3.org/1999/xlink" width="317.867" height="92.364" viewBox="0 0 317.867 92.364">
  <defs>
    <clipPath id="clip-path">
      <rect width="149.241" height="77.756" fill="none"/>
    </clipPath>
    <linearGradient id="linear-gradient" x1="-0.029" y1="-0.112" x2="0.779" y2="1.127" gradientUnits="objectBoundingBox">
      <stop offset="0" stop-color="#3292bd"/>
      <stop offset="1" stop-color="#028556"/>
    </linearGradient>
  </defs>
  <g id="Group_7242" data-name="Group 7242" transform="translate(-1237.934 -2469.005)">
    <g id="Symbol_4_1" data-name="Symbol 4 – 1" transform="translate(1406.56 2475.873)" clip-path="url(#clip-path)">
      <text id="Signy" transform="translate(0 55)" fill="#5e5e5e" font-size="53" font-family="Bukhari Script"><tspan x="0" y="0">Signy</tspan></text>
    </g>
    <g id="Group_5210" data-name="Group 5210" transform="translate(1237.934 2469.004)">
      <path id="Union_29" data-name="Union 29" d="M95.124,77.792a14.57,14.57,0,1,1,14.57,14.571A14.467,14.467,0,0,1,95.124,77.792Zm5-1.218a1.761,1.761,0,0,0,0,2.49l6.22,6.22a1.76,1.76,0,0,0,2.488,0l12.438-12.44a1.759,1.759,0,0,0-2.486-2.489l-11.2,11.2-4.975-4.978a1.762,1.762,0,0,0-2.488,0ZM96.6,90.254H42.825a5.419,5.419,0,0,1-3.847-1.594,5.419,5.419,0,0,1-1.594-3.848L41.521,72.7H23.693a6.494,6.494,0,0,1,0-12.989H68.8a6.494,6.494,0,0,0,0-12.988H37.033a6.494,6.494,0,1,1,0-12.988H67.046a6.494,6.494,0,0,0,0-12.988H52.3a6.494,6.494,0,1,1,0-12.988H63.71L64.5,5.441c.118-.216.237-.451.363-.7l0,0,0,0,0-.005,0-.009a15.444,15.444,0,0,1,1.9-3.074A5.2,5.2,0,0,1,68.169.468,3.592,3.592,0,0,1,69.944,0h44.67L134.5,28.139,122.045,64.59A18.078,18.078,0,0,0,96.6,90.252l0,0ZM77.927,58.222a2.371,2.371,0,0,0,2.37,2.369H96.269a2.369,2.369,0,1,0,0-4.739H80.3A2.373,2.373,0,0,0,77.927,58.222Zm5.792-8.951a2.372,2.372,0,0,0,2.37,2.37h23.87a2.37,2.37,0,0,0,0-4.739H86.09A2.373,2.373,0,0,0,83.72,49.271ZM73.54,40.32a2.371,2.371,0,0,0,2.37,2.369h36.33a2.369,2.369,0,1,0,0-4.738H75.91A2.373,2.373,0,0,0,73.54,40.32Zm13.69-8.951a2.372,2.372,0,0,0,2.37,2.37h23.87a2.369,2.369,0,0,0,0-4.738H89.6A2.372,2.372,0,0,0,87.23,31.369ZM6.494,72.7a6.494,6.494,0,1,1,0-12.988H7.723a6.494,6.494,0,0,1,0,12.988ZM31.575,20.75a6.007,6.007,0,0,1-6-6v-.987a6.007,6.007,0,0,1,6-6h2.217a6.007,6.007,0,0,1,6,6v.987a6.007,6.007,0,0,1-6,6Z" transform="translate(0 0.002)" fill="url(#linear-gradient)"/>
      <path id="Subtraction_48" data-name="Subtraction 48" d="M27.828,27.947H5.441A5.437,5.437,0,0,1,0,22.506L7.69,0h.388L27.829,27.947h0Z" transform="translate(106.537 0.001)" fill="#e3e3e3"/>
    </g>
  </g>
</svg>
